Coordinates
version=1
nRows=34
nColumns=38
inDegrees=no

Units are S.I. units (second, meters, Newtons, ...)
If the header above contains a line with 'inDegrees', this indicates whether rotational values are in degrees (yes) or radians (no).

endheader
time	pelvis_tilt	pelvis_list	pelvis_rotation	pelvis_tx	pelvis_ty	pelvis_tz	hip_flexion_r	hip_adduction_r	hip_rotation_r	knee_angle_r	ankle_angle_r	subtalar_angle_r	mtp_angle_r	hip_flexion_l	hip_adduction_l	hip_rotation_l	knee_angle_l	ankle_angle_l	subtalar_angle_l	mtp_angle_l	lumbar_extension	lumbar_bending	lumbar_rotation	arm_flex_r	arm_add_r	arm_rot_r	elbow_flex_r	pro_sup_r	wrist_flex_r	wrist_dev_r	arm_flex_l	arm_add_l	arm_rot_l	elbow_flex_l	pro_sup_l	wrist_flex_l	wrist_dev_l
2.62	-1.18772	1.48568	-0.343774	0.662245	-0.452281	0.912254	0.313767	0.0594424	-0.288097	0.374699	0.0291397	0	0	0.0134342	-0.282361	-0.229855	1.01292	-0.172802	0	0	-0.104464	0.136718	-0.13018	-0.0545711	-0.310185	0.456881	0.595371	1.22332	0	0	-0.0934533	-0.351827	0.402738	0.764557	0.95604	0	0
2.63	-1.1585	1.48089	-0.372888	0.660199	-0.462199	0.913346	0.29774	0.0677449	-0.284062	0.375296	0.0403572	0	0	0.0411245	-0.29232	-0.213059	1.05979	-0.233245	0	0	-0.108674	0.140381	-0.126473	-0.0535452	-0.313611	0.45925	0.596696	1.22168	0	0	-0.0992877	-0.350296	0.416107	0.760807	0.957888	0	0
2.64	-1.11563	1.47647	-0.415111	0.658318	-0.472027	0.914695	0.280039	0.0743545	-0.280979	0.37552	0.0513247	0	0	0.0671294	-0.299651	-0.196263	1.10317	-0.289789	0	0	-0.114494	0.14281	-0.122635	-0.0525712	-0.316698	0.460125	0.598524	1.21877	0	0	-0.103654	-0.348959	0.430907	0.756101	0.961045	0	0
2.65	-1.06925	1.4728	-0.461818	0.656486	-0.481593	0.916155	0.262008	0.0796693	-0.277115	0.374982	0.060934	0	0	0.091342	-0.304138	-0.181556	1.14234	-0.336345	0	0	-0.121203	0.143844	-0.117395	-0.0507736	-0.319993	0.461705	0.60045	1.21372	0	0	-0.10685	-0.347131	0.444704	0.750835	0.965264	0	0
2.66	-1.03045	1.4702	-0.50163	0.654666	-0.49092	0.917619	0.244717	0.083836	-0.27432	0.373148	0.0693867	0	0	0.114563	-0.306373	-0.168815	1.1765	-0.36387	0	0	-0.127123	0.143461	-0.110161	-0.0494389	-0.318254	0.439775	0.596281	1.26421	0	0	-0.107168	-0.347597	0.469482	0.745716	0.958336	0	0
2.67	-0.998578	1.46991	-0.534468	0.652923	-0.500178	0.918981	0.229743	0.0846845	-0.27673	0.373233	0.0801888	0	0	0.137815	-0.30545	-0.156605	1.2064	-0.36733	0	0	-0.131039	0.141018	-0.104447	-0.0466296	-0.31985	0.436522	0.595783	1.26869	0	0	-0.109871	-0.346121	0.484038	0.740701	0.960075	0	0
2.68	-0.946388	1.47702	-0.588102	0.651105	-0.509617	0.919688	0.234114	0.0615572	-0.325289	0.414324	0.106726	0	0	0.16232	-0.296	-0.147271	1.23557	-0.343636	0	0	-0.131297	0.129797	-0.0995611	-0.045311	-0.319912	0.43201	0.596726	1.2724	0	0	-0.115118	-0.347039	0.49697	0.739361	0.961238	0	0
2.69	-0.898391	1.47732	-0.63789	0.649377	-0.518571	0.921345	0.216071	0.0622275	-0.323695	0.40823	0.113207	0	0	0.184311	-0.293204	-0.139644	1.26379	-0.303765	0	0	-0.136199	0.125404	-0.0939665	-0.0408172	-0.322837	0.437885	0.59875	1.25323	0	0	-0.118399	-0.34448	0.504295	0.734569	0.968173	0	0
2.7	-0.867246	1.47111	-0.670924	0.647612	-0.52718	0.923844	0.176758	0.084433	-0.278923	0.357899	0.100791	0	0	0.203205	-0.297501	-0.133043	1.28789	-0.258983	0	0	-0.14482	0.127327	-0.0859402	-0.0363372	-0.321607	0.41979	0.59584	1.28458	0	0	-0.117145	-0.342586	0.522658	0.728207	0.961015	0	0
2.71	-0.789684	1.48011	-0.751471	0.645954	-0.535959	0.92482	0.180612	0.061011	-0.318844	0.393061	0.12335	0	0	0.226048	-0.283579	-0.130855	1.30598	-0.219169	0	0	-0.144811	0.1126	-0.0802102	-0.0334904	-0.321723	0.415842	0.598507	1.28576	0	0	-0.121863	-0.343273	0.53095	0.728486	0.961798	0	0
2.72	-0.682762	1.48578	-0.858842	0.6446	-0.54385	0.926987	0.164607	0.0525404	-0.317325	0.386247	0.127414	0	0	0.244907	-0.251397	-0.104049	1.3122	-0.189044	0	0	-0.149825	0.099434	-0.0767493	-0.026898	-0.321865	0.418341	0.600122	1.26775	0	0	-0.123156	-0.341546	0.534621	0.724358	0.968058	0	0
2.73	-0.61509	1.48794	-0.928653	0.643092	-0.552452	0.9287	0.147197	0.0501028	-0.315513	0.376606	0.131327	0	0	0.263304	-0.243843	-0.103397	1.31746	-0.167639	0	0	-0.152279	0.0913986	-0.0704119	-0.0253166	-0.321791	0.406691	0.60537	1.27126	0	0	-0.126293	-0.340434	0.541108	0.723809	0.967102	0	0
2.74	-0.556221	1.48774	-0.989971	0.641641	-0.561053	0.930657	0.121981	0.0549321	-0.297524	0.351026	0.127989	0	0	0.278876	-0.238902	-0.10462	1.31718	-0.148553	0	0	-0.155863	0.0856193	-0.0636727	-0.0238908	-0.322999	0.396405	0.612706	1.27551	0	0	-0.129754	-0.337988	0.543228	0.723481	0.965101	0	0
2.75	-0.444419	1.49302	-1.10701	0.638941	-0.569806	0.931957	0.112451	0.0423906	-0.30959	0.355089	0.137877	0	0	0.296134	-0.243163	-0.103132	1.30925	-0.121432	0	0	-0.155826	0.0706358	-0.0556206	-0.0238043	-0.322671	0.386753	0.62342	1.27875	0	0	-0.135367	-0.338274	0.543661	0.725284	0.964075	0	0
2.76	-0.350027	1.49508	-1.20573	0.637633	-0.578146	0.933494	0.0971892	0.0373978	-0.305564	0.347155	0.141611	0	0	0.310127	-0.234919	-0.110223	1.29899	-0.10477	0	0	-0.157607	0.061054	-0.0473414	-0.0243399	-0.327055	0.385014	0.639383	1.25427	0	0	-0.139779	-0.335476	0.540143	0.726577	0.974874	0	0
2.77	-0.259729	1.49636	-1.30122	0.636224	-0.586469	0.934985	0.0802009	0.0344532	-0.296177	0.334346	0.142658	0	0	0.322373	-0.227808	-0.119629	1.2839	-0.0889051	0	0	-0.159328	0.051983	-0.0375345	-0.0255741	-0.327586	0.365467	0.651176	1.27866	0	0	-0.142994	-0.334227	0.542697	0.73021	0.960528	0	0
2.78	-0.167672	1.49754	-1.39866	0.634769	-0.594862	0.936226	0.0665447	0.0290718	-0.294814	0.328002	0.146281	0	0	0.333644	-0.221213	-0.131252	1.26488	-0.0723123	0	0	-0.160083	0.0428158	-0.0284114	-0.0269007	-0.331015	0.358563	0.667612	1.27178	0	0	-0.148279	-0.33158	0.536357	0.73394	0.960275	0	0
2.79	-0.13276	1.49698	-1.43839	0.633587	-0.603876	0.937171	0.0491709	0.0295274	-0.291395	0.316774	0.148671	0	0	0.343908	-0.229919	-0.15769	1.24683	-0.0541377	0	0	-0.159464	0.0387464	-0.0199606	-0.0285204	-0.335465	0.353262	0.682062	1.27046	0	0	-0.155561	-0.32842	0.530349	0.738107	0.962772	0	0
2.8	0.00392465	1.49415	-1.57673	0.632601	-0.611959	0.938857	0.030444	0.0212441	-0.286686	0.306458	0.150902	0	0	0.3482	-0.207573	-0.154702	1.21393	-0.0367011	0	0	-0.164535	0.0264176	-0.0154964	-0.0265513	-0.337427	0.348463	0.695189	1.26362	0	0	-0.159374	-0.325998	0.521477	0.741597	0.956817	0	0
2.81	0.04281	1.49272	-1.62203	0.631381	-0.620526	0.939532	0.0138777	0.0205225	-0.28114	0.296586	0.154244	0	0	0.35517	-0.213658	-0.182781	1.1879	-0.0200765	0	0	-0.16559	0.0216514	-0.00587079	-0.0269979	-0.342566	0.344294	0.711367	1.26154	0	0	-0.165187	-0.32292	0.514574	0.746616	0.954549	0	0
2.82	0.120037	1.49021	-1.70452	0.630325	-0.628505	0.940408	-0.00193304	0.0156969	-0.275559	0.288041	0.15757	0	0	0.359173	-0.206041	-0.198605	1.15244	-0.00664564	0	0	-0.169052	0.0134037	0.0019959	-0.0247201	-0.346321	0.339997	0.725487	1.26008	0	0	-0.168652	-0.319915	0.507195	0.750219	0.951762	0	0
2.83	0.179903	1.4889	-1.76742	0.629588	-0.636576	0.941007	-0.0161318	0.0118851	-0.273609	0.280388	0.16163	0	0	0.364274	-0.1992	-0.213738	1.11375	0.00335561	0	0	-0.170337	0.00697849	0.00764508	-0.0218564	-0.348729	0.334273	0.735505	1.26665	0	0	-0.171638	-0.31718	0.503122	0.751944	0.955252	0	0
2.84	0.250449	1.48241	-1.84172	0.628702	-0.644445	0.942034	-0.0360774	0.00592243	-0.26802	0.270032	0.164858	0	0	0.36026	-0.186998	-0.228653	1.06521	0.00973789	0	0	-0.177479	-0.00222873	0.0133116	-0.0186855	-0.352423	0.333666	0.750548	1.25409	0	0	-0.173683	-0.314173	0.494525	0.755007	0.946354	0	0
2.85	0.279686	1.4791	-1.87444	0.627975	-0.652597	0.942392	-0.0532812	0.00380451	-0.26456	0.260567	0.16894	0	0	0.359636	-0.183954	-0.251566	1.01896	0.0155622	0	0	-0.180897	-0.00711266	0.0189863	-0.0163262	-0.355884	0.330375	0.763731	1.25204	0	0	-0.176215	-0.311068	0.48868	0.757271	0.944285	0	0
2.86	0.304793	1.47641	-1.90118	0.627475	-0.660702	0.942571	-0.069633	0.00175301	-0.263548	0.251789	0.172961	0	0	0.358182	-0.178726	-0.27188	0.968139	0.0217509	0	0	-0.183991	-0.0113604	0.0227398	-0.0137908	-0.35871	0.325917	0.776492	1.24977	0	0	-0.178372	-0.307781	0.482298	0.759107	0.943544	0	0
2.87	0.322428	1.47538	-1.91917	0.627267	-0.668467	0.94247	-0.0843213	0.000748245	-0.264306	0.243751	0.17744	0	0	0.357577	-0.173965	-0.292229	0.915425	0.0291396	0	0	-0.185672	-0.01412	0.0251976	-0.0113209	-0.361456	0.322301	0.788738	1.24601	0	0	-0.18013	-0.304774	0.47738	0.760396	0.944525	0	0
2.88	0.340352	1.4721	-1.93857	0.627059	-0.676815	0.942283	-0.101195	-0.00152373	-0.263011	0.234465	0.182151	0	0	0.352522	-0.16655	-0.313727	0.857294	0.0334841	0	0	-0.190253	-0.0176166	0.0290088	-0.00959914	-0.361934	0.305792	0.800606	1.27813	0	0	-0.17974	-0.302715	0.478758	0.763243	0.924248	0	0
2.89	0.332148	1.47488	-1.93403	0.627896	-0.684323	0.941364	-0.111162	-0.00231361	-0.266025	0.22793	0.189316	0	0	0.356627	-0.149175	-0.325928	0.801851	0.0310007	0	0	-0.190099	-0.0146456	0.0320723	-0.00412636	-0.367475	0.307637	0.812512	1.25681	0	0	-0.181169	-0.297146	0.474974	0.763217	0.933237	0	0
2.9	0.344555	1.47529	-1.94617	0.627988	-0.692186	0.940553	-0.123672	-0.00289937	-0.267124	0.221397	0.195577	0	0	0.353982	-0.14255	-0.345043	0.739296	0.0345322	0	0	-0.191335	-0.0160361	0.0332813	-0.000937584	-0.369434	0.302097	0.823325	1.26398	0	0	-0.180907	-0.294147	0.472842	0.76378	0.928066	0	0
2.91	0.357455	1.47684	-1.95839	0.62826	-0.699911	0.939491	-0.134101	-0.00333785	-0.268238	0.21632	0.202328	0	0	0.351602	-0.134582	-0.362668	0.673808	0.0372305	0	0	-0.191953	-0.016762	0.033741	0.00291276	-0.371502	0.297737	0.833411	1.26996	0	0	-0.180012	-0.290813	0.470734	0.763423	0.925393	0	0
2.92	0.372242	1.47831	-1.97248	0.628671	-0.707553	0.938317	-0.143461	-0.00455727	-0.269871	0.213034	0.20977	0	0	0.347983	-0.124871	-0.379821	0.605235	0.0386287	0	0	-0.193108	-0.0175658	0.0338666	0.0069065	-0.373015	0.292542	0.842862	1.27609	0	0	-0.178802	-0.287271	0.46788	0.763094	0.924621	0	0
2.93	0.390479	1.48062	-1.98899	0.629296	-0.715213	0.93694	-0.151407	-0.00589274	-0.272864	0.211163	0.217827	0	0	0.34437	-0.113171	-0.393833	0.534205	0.0390224	0	0	-0.193332	-0.0181164	0.0325877	0.0109733	-0.373477	0.28589	0.851273	1.28171	0	0	-0.177352	-0.283832	0.465631	0.762043	0.926189	0	0
2.94	0.413786	1.48374	-2.00953	0.630156	-0.722864	0.935354	-0.157955	-0.00736731	-0.277582	0.210528	0.226353	0	0	0.340543	-0.0989304	-0.402224	0.460007	0.0390282	0	0	-0.192578	-0.0183431	0.0305955	0.0146732	-0.373299	0.277127	0.859294	1.28702	0	0	-0.174887	-0.280708	0.465763	0.759874	0.92948	0	0
2.95	0.439316	1.48733	-2.03166	0.631208	-0.730576	0.933614	-0.16374	-0.00887797	-0.283266	0.21073	0.235104	0	0	0.335598	-0.0826409	-0.404098	0.382629	0.0393175	0	0	-0.191234	-0.0182059	0.0280757	0.0189341	-0.373477	0.270036	0.865464	1.29189	0	0	-0.171855	-0.277348	0.466654	0.756371	0.934586	0	0
